<svg width="40" height="40" viewBox="0 0 40 40" fill="none" xmlns="http://www.w3.org/2000/svg">
<path d="M15.2259 34.6219V29.5257C15.2259 28.2248 16.2883 27.1702 17.5987 27.1702H22.389C23.0183 27.1702 23.6218 27.4184 24.0668 27.8601C24.5118 28.3018 24.7617 28.901 24.7617 29.5257V34.6219C24.7578 35.1628 24.9714 35.6828 25.3553 36.0666C25.7391 36.4505 26.2614 36.6663 26.8062 36.6663H30.0743C31.6007 36.6703 33.0659 36.0711 34.1466 35.001C35.2273 33.931 35.8346 32.478 35.8346 30.9627V16.4444C35.8346 15.2204 35.2881 14.0594 34.3423 13.2741L23.2247 4.45946C21.2907 2.91394 18.5198 2.96384 16.6436 4.57797L5.77966 13.2741C4.7892 14.0363 4.19722 15.2007 4.16797 16.4444V30.9479C4.16797 34.1061 6.74694 36.6663 9.92826 36.6663H13.1218C14.2533 36.6664 15.173 35.76 15.1812 34.6367L15.2259 34.6219Z" fill="white" fill-opacity="0.5" stroke="white" stroke-width="2"/>
</svg>
