<svg width="56" height="60" viewBox="0 0 56 60" fill="none" xmlns="http://www.w3.org/2000/svg">
<path d="M19.6429 55.5888V46.6705C19.6429 44.3939 21.502 42.5483 23.7953 42.5483H32.1783C33.2796 42.5483 34.3357 42.9826 35.1144 43.7557C35.8931 44.5287 36.3306 45.5772 36.3306 46.6705V55.5888C36.3237 56.5353 36.6975 57.4454 37.3693 58.1171C38.041 58.7888 38.955 59.1666 39.9084 59.1665H45.6277C48.2988 59.1734 50.8629 58.1249 52.7541 56.2523C54.6453 54.3797 55.7082 51.8369 55.7082 49.1852V23.7783C55.7081 21.6363 54.7517 19.6045 53.0966 18.2302L33.6407 2.80454C30.2563 0.0998902 25.4072 0.187216 22.1239 3.01194L3.11196 18.2302C1.37866 19.5639 0.342698 21.6018 0.291504 23.7783V49.1593C0.291504 54.6862 4.8047 59.1665 10.372 59.1665H15.9607C17.9409 59.1666 19.5502 57.5805 19.5646 55.6148L19.6429 55.5888Z" fill="#0CA940"/>
</svg>
