<svg width="40" height="40" viewBox="0 0 40 40" fill="none" xmlns="http://www.w3.org/2000/svg">
<path fill-rule="evenodd" clip-rule="evenodd" d="M5.83341 22.9782V22.6132C5.88695 21.5334 6.23303 20.4872 6.83596 19.5823C7.83953 18.4954 8.52654 17.1635 8.82489 15.7263C8.82489 14.6155 8.82489 13.4888 8.92191 12.3781C9.42318 7.03037 14.7108 3.33301 19.9338 3.33301H20.0632C25.2861 3.33301 30.5738 7.03037 31.0912 12.3781C31.1882 13.4888 31.0912 14.6155 31.1721 15.7263C31.4744 17.1668 32.1607 18.5029 33.161 19.5982C33.7684 20.495 34.1151 21.5374 34.1635 22.6132V22.9623C34.1996 24.4131 33.7 25.8277 32.7567 26.9453C31.5103 28.2521 29.8189 29.0651 28.0027 29.2304C22.677 29.8017 17.3038 29.8017 11.9781 29.2304C10.1639 29.058 8.47496 28.2462 7.22404 26.9453C6.29536 25.8269 5.80243 24.4206 5.83341 22.9782Z" fill="white" stroke="white" stroke-width="2" stroke-linecap="round" stroke-linejoin="round"/>
<path fill-rule="evenodd" clip-rule="evenodd" d="M15.9219 34.7529C16.754 35.7974 17.976 36.4733 19.3174 36.6312C20.6587 36.789 22.0089 36.4157 23.0691 35.594C23.3952 35.3509 23.6886 35.0683 23.9423 34.7529" fill="white"/>
<path d="M15.9219 34.7529C16.754 35.7974 17.976 36.4733 19.3174 36.6312C20.6587 36.789 22.0089 36.4157 23.0691 35.594C23.3952 35.3509 23.6886 35.0683 23.9423 34.7529" stroke="white" stroke-width="2" stroke-linecap="round" stroke-linejoin="round"/>
</svg>
