<svg width="40" height="40" viewBox="0 0 40 40" fill="none" xmlns="http://www.w3.org/2000/svg">
<path fill-rule="evenodd" clip-rule="evenodd" d="M5.83536 22.9782V22.6132C5.8889 21.5334 6.23498 20.4872 6.83791 19.5823C7.84149 18.4954 8.52849 17.1635 8.82684 15.7263C8.82684 14.6155 8.82684 13.4888 8.92386 12.3781C9.42514 7.03037 14.7128 3.33301 19.9357 3.33301H20.0651C25.2881 3.33301 30.5757 7.03037 31.0932 12.3781C31.1902 13.4888 31.0932 14.6155 31.174 15.7263C31.4764 17.1668 32.1627 18.5029 33.1629 19.5982C33.7704 20.495 34.117 21.5374 34.1655 22.6132V22.9623C34.2016 24.4131 33.7019 25.8277 32.7587 26.9453C31.5123 28.2521 29.8208 29.0651 28.0047 29.2304C22.679 29.8017 17.3057 29.8017 11.98 29.2304C10.1659 29.058 8.47691 28.2462 7.22599 26.9453C6.29732 25.8269 5.80439 24.4206 5.83536 22.9782Z" fill="white" fill-opacity="0.5" stroke="white" stroke-width="2" stroke-linecap="round" stroke-linejoin="round"/>
<path fill-rule="evenodd" clip-rule="evenodd" d="M15.9258 34.7529C16.7579 35.7974 17.9799 36.4733 19.3213 36.6312C20.6627 36.789 22.0128 36.4157 23.073 35.594C23.3991 35.3509 23.6925 35.0683 23.9462 34.7529" fill="white" fill-opacity="0.5"/>
<path d="M15.9258 34.7529C16.7579 35.7974 17.9799 36.4733 19.3213 36.6312C20.6627 36.789 22.0128 36.4157 23.073 35.594C23.3991 35.3509 23.6925 35.0683 23.9462 34.7529" stroke="white" stroke-width="2" stroke-linecap="round" stroke-linejoin="round"/>
</svg>
